<svg xmlns="http://www.w3.org/2000/svg" viewBox="0 0 900 600" width="900" height="600" role="img" aria-label="The same campus waste and recycling area after cleanup, with closed bins, clean ground and new planting">
  <defs>
    <linearGradient id="skyA" x1="0" y1="0" x2="0" y2="1">
      <stop offset="0" stop-color="#bfe3f2"/><stop offset="1" stop-color="#eaf6fb"/>
    </linearGradient>
    <linearGradient id="grassA" x1="0" y1="0" x2="0" y2="1">
      <stop offset="0" stop-color="#a6c793"/><stop offset="1" stop-color="#86b06d"/>
    </linearGradient>
  </defs>
  <circle cx="800" cy="90" r="42" fill="#fde68a" opacity="0.85"/>
  <rect width="900" height="600" fill="url(#skyA)"/>
  <rect x="60" y="250" width="160" height="150" fill="#d3dde6"/>
  <rect x="250" y="220" width="120" height="180" fill="#dde4ec"/>
  <rect x="620" y="240" width="180" height="160" fill="#d3dde6"/>
  <rect x="820" y="270" width="80" height="130" fill="#dde4ec"/>
  <rect x="0" y="380" width="900" height="220" fill="url(#grassA)"/>
  <polygon points="350,600 450,380 520,380 640,600" fill="#d8cdba"/>
  <g>
    <rect x="140" y="360" width="14" height="42" fill="#7a5a3a"/>
    <circle cx="147" cy="348" r="36" fill="#6aa05a"/>
    <rect x="740" y="360" width="14" height="42" fill="#7a5a3a"/>
    <circle cx="747" cy="348" r="36" fill="#6aa05a"/>
  </g>
  <g>
    <rect x="395" y="430" width="72" height="112" rx="6" fill="#3b7d5a"/>
    <rect x="500" y="430" width="72" height="112" rx="6" fill="#3b7d5a"/>
    <rect x="391" y="416" width="80" height="16" rx="6" fill="#2c5e44"/>
    <rect x="496" y="416" width="80" height="16" rx="6" fill="#2c5e44"/>
    <rect x="426" y="452" width="4" height="22" fill="#cbd5e1" opacity="0.7"/>
    <rect x="531" y="452" width="4" height="22" fill="#cbd5e1" opacity="0.7"/>
  </g>
  <g>
    <rect x="610" y="500" width="4" height="26" fill="#7a5a3a"/>
    <path d="M612 500 q-16 -10 -18 -26 q16 4 18 26 q16 -10 18 -26 q-2 16 -18 26" fill="#6aa05a"/>
  </g>
</svg>
